# AST/ASF file generated using VICON BodyLanguage
# -----------------------------------------------
:version 1.10
:name VICON
:units
  mass 1.0
  length 0.45
  angle deg
:documentation
   .ast/.asf automatically generated from VICON data using
   VICON BodyBuilder and BodyLanguage model FoxedUp or BRILLIANT.MOD
:root
   order TX TY TZ RX RY RZ
   axis XYZ
   position 0 0 0  
   orientation 0 -0 0 
:bonedata
  begin
     id 1 
     name lhipjoint
     direction 0.500677 -0.737119 0.453848 
     length 2.34727 
     axis 0 -0 0  XYZ
  end
  begin
     id 2 
     name lfemur
     direction 0.34202 -0.939693 0  
     length 7.53653  
     axis 0 -0 20  XYZ
    dof rx ry rz
    limits (-160.0 20.0)
           (-70.0 70.0)
           (-60.0 70.0)
  end
  begin
     id 3 
     name ltibia
     direction 0.34202 -0.939693 0   
     length 6.85572   
     axis 0 -0 20   XYZ
    dof rx
    limits (-10.0 170.0)
  end
  begin
     id 4 
     name lfoot
     direction 0.155313 -0.426718 0.890949   
     length 2.18324   
     axis -90 -1.13533e-015 20   XYZ
    dof rx rz
    limits (-45.0 90.0)
           (-70.0 20.0)
  end
  begin
     id 5 
     name ltoes
     direction 1.53474e-011 -4.21647e-011 1   
     length 1.06748   
     axis -90 -1.13533e-015 20   XYZ
    dof rx
    limits (-90.0 20.0)
  end
  begin
     id 6 
     name rhipjoint
     direction -0.632471 -0.659587 0.406111   
     length 2.62319  
     axis 0 -0 0  XYZ 
  end
  begin
     id 7 
     name rfemur
     direction -0.34202 -0.939693 0   
     length 7.21735   
     axis 0 -0 -20   XYZ
    dof rx ry rz
    limits (-160.0 20.0)
           (-70.0 70.0)
           (-70.0 60.0)
  end
  begin
     id 8 
     name rtibia
     direction -0.34202 -0.939693 0   
     length 7.02558   
     axis 0 -0 -20   XYZ
    dof rx
    limits (-10.0 170.0)
 end
 begin
     id 9 
     name rfoot
     direction -0.16057 -0.441164 0.882945   
     length 2.10014  
     axis -90 1.13533e-015 -20   XYZ
    dof rx rz
    limits (-45.0 90.0)
           (-20.0 70.0)
  end
  begin
     id 10 
     name rtoes
     direction -1.53553e-011 -4.2192e-011 1   
     length 1.02554   
     axis -90 1.13533e-015 -20   XYZ
    dof rx
    limits (-90.0 20.0)
  end
  begin
     id 11 
     name lowerback
     direction 0.0401429 0.998861 -0.0258085   
     length 1.80848   
     axis 0 -0 0   XYZ
    dof rx ry rz
    limits (-20.0 45.0)
           (-30.0 30.0)
           (-30.0 30.0)
  end
  begin
     id 12 
     name upperback
     direction -0.0130978 0.999914 -0.000352645   
     length 1.8116   
     axis 0 -0 0   XYZ
    dof rx ry rz
    limits (-20.0 45.0)
           (-30.0 30.0)
           (-30.0 30.0)
  end
  begin
     id 13 
     name thorax
     direction -0.0300198 0.999453 0.0138573   
     length 1.81778   
     axis 0 -0 0   XYZ
    dof rx ry rz
    limits (-20.0 45.0)
           (-30.0 30.0)
           (-30.0 30.0)
  end
  begin
     id 14 
     name lowerneck
     direction -0.0401726 0.999191 -0.00173647   
     length 2.10594   
     axis 0 -0 0   XYZ
    dof rx ry rz
    limits (-20.0 45.0)
           (-30.0 30.0)
           (-30.0 30.0)
  end
  begin
     id 15 
     name upperneck
     direction 0.0119835 0.998501 0.0534085   
     length 2.07325   
     axis 0 -0 0   XYZ
    dof rx ry rz
    limits (-20.0 45.0)
           (-30.0 30.0)
           (-30.0 30.0)
  end
  begin
     id 16
     name head
     direction 0.00628309 0.999826 0.0175921  
     length 2.15096  
     axis 0 -0 0   XYZ
    dof rx ry rz
    limits (-20.0 45.0)
           (-30.0 30.0)
           (-30.0 30.0)
  end
  begin
     id 17 
     name lclavicle
     direction 0.895501 0.429681 -0.115981  
     length 4.18092  
     axis 0 -0 0   XYZ
    dof ry rz
    limits (-20.0 10.0)
           (0.0 20.0)
  end
  begin
     id 18 
     name lhumerus
     direction 1 -4.48961e-011 -3.38433e-028   
     length 5.77237   
     axis 180 -30 -90   XYZ
    dof rx ry rz
    limits (-60.0 90.0)
           (-90.0 90.0)
           (-90.0 90.0)
  end
  begin
     id 19
     name lradius
     direction 1 -4.4901e-011 1.11983e-026   
     length 2.91878   
     axis 180 -30 -90   XYZ
    dof rx
    limits (-10.0 170.0)
  end
  begin
     id 20
     name lwrist
     direction 1 -4.48934e-011 1.88176e-026   
     length 1.45939   
     axis -1.23311e-014 90 90   XYZ
    dof ry
    limits (-180.0 0.0)
 end
  begin
     id 21 
     name lhand
     direction 1 -4.4895e-011 3.76352e-026   
     length 1.06566   
     axis -2.40147e-014 90 90   XYZ
    dof rx rz
    limits (-90.0 90.0)
           (-45.0 45.0)
  end
  begin
     id 22 
     name lfingers
     direction 1 -4.49005e-011 7.52705e-026   
     length 0.859162   
     axis -4.80295e-014 90 90   XYZ
    dof rx
    limits (0.0 90.0)
  end
  begin
     id 23
     name lthumb
     direction 0.707107 -6.34885e-011 0.707107   
     length 1.23359   
     axis -90 45 -9.86935e-015   XYZ
    dof rx rz
    limits (-45.0 45.0)
           (-45.0 45.0)
  end
  begin
     id 24 
     name rclavicle
     direction -0.91006 0.40451 -0.0903492   
     length 4.23293  
     axis 0 -0 0   XYZ 
    dof ry rz
    limits (-10.0 20.0)
           (-20.0 0.0)
  end
  begin
     id 25 
     name rhumerus
     direction -1 -4.4897e-011 1.7415e-027  
     length 5.49854   
     axis 180 30 90   XYZ
    dof rx ry rz
    limits (-90.0 60.0)
           (-90.0 90.0)
           (-90.0 90.0)
  end
  begin
     id 26 
     name rradius
     direction -1 -4.48963e-011 1.21259e-026   
     length 3.1186   
     axis 180 30 90   XYZ
    dof rx
    limits (-10.0 170.0)
  end
  begin
     id 27 
     name rwrist
     direction -1 -4.48967e-011 1.88176e-026   
     length 1.5593   
     axis -1.23311e-014 -90 -90   XYZ
    dof ry
    limits (-180.0 0.0)
  end
  begin
     id 28
     name rhand
     direction -1 -4.4895e-011 3.76352e-026   
     length 0.71207   
     axis -2.40147e-014 -90 -90   XYZ
    dof rx rz
    limits (-90.0 90.0)
           (-45.0 45.0)
  end
  begin
     id 29
     name rfingers
     direction -1 -4.49005e-011 7.52705e-026   
     length 0.574089   
     axis -4.80295e-014 -90 -90   XYZ
    dof rx
    limits (0.0 90.0)
  end
  begin
     id 30
     name rthumb
     direction -0.707107 -6.34982e-011 0.707107   
     length 0.824281   
     axis -90 -45 9.86935e-015   XYZ
    dof rx rz
    limits (-45.0 45.0)
           (-45.0 45.0)
  end
:hierarchy
  begin
    root lhipjoint rhipjoint lowerback
    lhipjoint lfemur
    lfemur ltibia
    ltibia lfoot
    lfoot ltoes
    rhipjoint rfemur
    rfemur rtibia
    rtibia rfoot
    rfoot rtoes
    lowerback upperback
    upperback thorax
    thorax lowerneck lclavicle rclavicle
    lowerneck upperneck
    upperneck head
    lclavicle lhumerus
    lhumerus lradius
    lradius lwrist
    lwrist lhand lthumb
    lhand lfingers
    rclavicle rhumerus
    rhumerus rradius
    rradius rwrist
    rwrist rhand rthumb
    rhand rfingers
  end

#!OML:ASF C:\ViconDB\ViconDB\414\Spring2016\042216\male.ASF
:FULLY-SPECIFIED
:DEGREES
257
root -3.73513 17.3932 11.5929 -151.465 82.7376 -151.903
lowerback 2.04069 -2.72923 6.64191
upperback -0.16827 -3.44435 0.669314
thorax -1.66953 -1.7659 -2.89464
lowerneck -2.35522 1.57343 -3.84509
upperneck -6.62442 2.37883 2.92513
head -1.76256 1.26885 1.55532
rclavicle 7.99425e-014 -7.35503e-015
rhumerus -28.5771 -2.96328 -90.5935
rradius 28.3357
rwrist 26.8585
rhand 11.6841 -19.7516
rfingers 7.12502
rthumb 36.7218 -45.8874
lclavicle 7.99425e-014 -7.35503e-015
lhumerus -37.2832 14.0409 85.1811
lradius 34.091
lwrist -15.0865
lhand -5.32447 10.47
lfingers 7.12502
lthumb 20.4816 39.4097
rfemur -9.80351 -1.77668 26.4607
rtibia 22.3617
rfoot -14.2171 -0.621747
rtoes -11.7523
lfemur -20.0639 3.2468 -14.799
ltibia 67.0714
lfoot -14.4542 8.36993
ltoes -12.1076
258
root -3.56185 17.3816 11.5755 -150.208 83.2728 -150.676
lowerback 2.19493 -2.56366 6.77652
upperback -0.178044 -3.21015 0.561869
thorax -1.75649 -1.65418 -3.08392
lowerneck -2.37983 1.67737 -3.76825
upperneck -6.63039 2.51109 2.77827
head -1.76085 1.33577 1.49311
rclavicle 6.61021e-014 -1.63997e-014
rhumerus -27.8483 -2.72034 -90.7994
rradius 28.5546
rwrist 27.1229
rhand 11.6404 -19.4208
rfingers 7.12502
rthumb 36.6805 -45.5672
lclavicle 6.61021e-014 -1.63997e-014
lhumerus -37.8536 14.5289 84.7572
lradius 34.3297
lwrist -14.8277
lhand -5.10137 10.3494
lfingers 7.12502
lthumb 20.696 39.2659
rfemur -9.20938 -0.482588 26.3757
rtibia 22.5516
rfoot -14.791 -1.4288
rtoes -11.6229
lfemur -21.5337 3.88483 -15.1758
ltibia 66.4852
lfoot -15.506 8.54556
ltoes -12.7067
259
root -3.382 17.3654 11.5674 -148.081 83.4534 -148.488
lowerback 2.34218 -2.45478 7.02574
upperback -0.161729 -3.04767 0.495709
thorax -1.82232 -1.57741 -3.29288
lowerneck -2.42456 1.71295 -3.62704
upperneck -6.57195 2.55429 2.71226
head -1.7318 1.35496 1.44681
rclavicle -6.14679e-015 -9.54166e-015
rhumerus -27.1294 -2.36851 -91.2123
rradius 28.7876
rwrist 26.8585
rhand 11.5223 -19.7418
rfingers 7.12502
rthumb 36.5687 -45.9166
lclavicle -6.14679e-015 -9.54166e-015
lhumerus -38.4994 14.7056 84.3179
lradius 34.6336
lwrist -14.137
lhand -4.86033 11.3056
lfingers 7.12502
lthumb 20.9276 40.1967
rfemur -8.37342 1.0827 26.6465
rtibia 22.5509
rfoot -15.3187 -2.79811
rtoes -11.5433
lfemur -22.8754 4.32032 -15.2151
ltibia 65.582
lfoot -16.306 8.48689
ltoes -12.2622
260
root -3.20443 17.3521 11.5496 -144.832 83.8553 -145.321
lowerback 2.41734 -2.28311 7.34728
upperback -0.193136 -2.80083 0.490924
thorax -1.88616 -1.45985 -3.48583
lowerneck -2.41485 1.79639 -3.73028
upperneck -6.61563 2.65883 2.54213
head -1.74982 1.4126 1.40901
rclavicle 3.0911e-014 2.38542e-015
rhumerus -26.4346 -1.81978 -91.41
rradius 29.0786
rwrist 26.7587
rhand 11.512 -19.8145
rfingers 7.12502
rthumb 36.559 -45.9917
lclavicle 3.0911e-014 2.38542e-015
lhumerus -39.0296 15.2845 83.9727
lradius 34.6606
lwrist -13.6238
lhand -5.25369 10.7281
lfingers 7.12502
lthumb 20.5496 39.6604
rfemur -7.74311 2.05458 26.7892
rtibia 22.4867
rfoot -15.7856 -3.30118
rtoes -11.5118
lfemur -24.2059 4.74346 -15.3599
ltibia 64.3279
lfoot -16.9333 8.418
ltoes -12.0484
261
root -3.02026 17.3338 11.5424 -139.151 83.9388 -139.643
lowerback 2.19869 -2.17323 7.76387
upperback -0.000245351 -2.66545 0.628611
thorax -1.56059 -1.37708 -3.59578
lowerneck -2.60009 1.90622 -3.64188
upperneck -6.6574 2.79838 2.20981
head -1.72721 1.48832 1.2868
rclavicle 8.79312e-015 7.95139e-015
rhumerus -25.4324 -1.04088 -91.7016
rradius 29.2904
rwrist 26.3871
rhand 11.4622 -19.924
rfingers 7.12502
rthumb 36.5118 -46.1132
lclavicle 8.79312e-015 7.95139e-015
lhumerus -39.1285 16.3273 83.4528
lradius 34.2324
lwrist -13.4763
lhand -5.37538 10.4388
lfingers 7.12502
lthumb 20.4327 39.3837
rfemur -6.92187 3.02276 27.3989
rtibia 22.2543
rfoot -16.1652 -3.93752
rtoes -11.3416
lfemur -25.3972 5.14487 -15.0444
ltibia 62.783
lfoot -17.5007 8.44274
ltoes -11.9826
262
root -2.83464 17.3227 11.5267 -135.74 84.0714 -136.319
lowerback 1.96341 -2.05166 8.08142
upperback 0.109663 -2.52111 0.674814
thorax -1.30886 -1.29393 -3.74293
lowerneck -2.65382 1.99839 -3.72828
upperneck -6.73351 2.91901 2.03649
head -1.74441 1.55517 1.24551
rclavicle -1.96362e-014 -1.39149e-015
rhumerus -24.5482 -0.630221 -91.8484
rradius 29.5243
rwrist 26.3554
rhand 11.6508 -19.7586
rfingers 7.12502
rthumb 36.6904 -45.9025
lclavicle -1.96362e-014 -1.39149e-015
lhumerus -39.4623 16.9633 83.0948
lradius 34.1667
lwrist -13.2871
lhand -5.40067 10.6764
lfingers 7.12502
lthumb 20.4084 39.624
rfemur -6.11355 3.55399 27.6591
rtibia 21.8941
rfoot -16.5551 -4.15787
rtoes -11.6888
lfemur -26.5003 5.3604 -15.0602
ltibia 60.8522
lfoot -17.9151 8.63618
ltoes -12.5519
263
root -2.64533 17.3173 11.5148 -132.438 84.172 -133.174
lowerback 1.6926 -1.8975 8.41342
upperback 0.174507 -2.33963 0.621905
thorax -1.08225 -1.19479 -4.00131
lowerneck -2.66347 2.04955 -3.4692
upperneck -6.84564 2.97014 1.6702
head -1.76721 1.58253 1.08323
rclavicle 6.59717e-015 -1.95803e-014
rhumerus -23.7291 -0.472056 -92.0845
rradius 29.7854
rwrist 26.228
rhand 11.9783 -19.6607
rfingers 7.12502
rthumb 37.0002 -45.7251
lclavicle 6.59717e-015 -1.95803e-014
lhumerus -39.968 16.6739 82.9627
lradius 34.5682
lwrist -12.5201
lhand -5.35871 11.1009
lfingers 7.12502
lthumb 20.4487 40.0441
rfemur -5.3177 3.76389 27.8934
rtibia 21.4042
rfoot -16.8487 -4.14356
rtoes -12.0764
lfemur -27.5065 5.4716 -15.0416
ltibia 58.5715
lfoot -18.5459 8.79629
ltoes -11.594
264
root -2.45545 17.3147 11.5009 -130.051 84.2905 -130.837
lowerback 1.48767 -1.79698 8.63822
upperback 0.297532 -2.23013 0.555306
thorax -0.835971 -1.12776 -4.20924
lowerneck -2.8658 2.09756 -3.41663
upperneck -6.78077 3.04034 1.64099
head -1.71155 1.61794 1.06622
rclavicle 3.08458e-014 -2.05742e-014
rhumerus -22.8659 0.170125 -92.4513
rradius 30.0485
rwrist 25.5706
rhand 11.3154 -19.8763
rfingers 7.12502
rthumb 36.3728 -46.1003
lclavicle 3.08458e-014 -2.05742e-014
lhumerus -40.0899 17.4792 82.3438
lradius 33.9746
lwrist -12.8891
lhand -5.66139 11.065
lfingers 7.12502
lthumb 20.1578 40.0391
rfemur -4.33977 3.69757 28.0013
rtibia 20.77
rfoot -17.214 -3.94271
rtoes -11.9992
lfemur -28.2256 5.43358 -15.1191
ltibia 55.9273
lfoot -19.1248 9.11954
ltoes -11.9199
265
root -2.26536 17.3147 11.4847 -128.351 84.4798 -129.321
lowerback 1.23814 -1.71489 8.64861
upperback 0.314861 -2.14589 0.634487
thorax -0.663519 -1.07759 -4.14379
lowerneck -2.78764 2.1839 -3.70171
upperneck -6.923 3.15039 1.45853
head -1.77613 1.68443 1.05509
rclavicle -1.82789e-014 -1.19271e-014
rhumerus -22.1688 0.721142 -92.4054
rradius 30.3281
rwrist 25.6259
rhand 11.1274 -19.8206
rfingers 7.12502
rthumb 36.1949 -46.089
lclavicle -1.82789e-014 -1.19271e-014
lhumerus -40.5092 18.5846 81.8447
lradius 33.6056
lwrist -13.5896
lhand -5.61915 10.9968
lfingers 7.12502
lthumb 20.1984 39.9667
rfemur -3.41358 3.46769 27.9195
rtibia 19.9208
rfoot -17.3122 -3.40928
rtoes -11.524
lfemur -28.939 5.37229 -15.3107
ltibia 52.9307
lfoot -19.2677 9.84631
ltoes -12.1506
266
root -2.07249 17.306 11.4725 -125.671 84.5942 -126.715
lowerback 1.12971 -1.61136 8.77516
upperback 0.319793 -2.01842 0.610494
thorax -0.585265 -1.01097 -4.24639
lowerneck -2.71744 2.29477 -3.4384
upperneck -6.91768 3.27413 1.11445
head -1.77643 1.74483 0.898971
rclavicle -3.75206e-015 8.44835e-015
rhumerus -21.5974 1.10794 -92.5801
rradius 30.5687
rwrist 25.6756
rhand 11.6547 -19.3495
rfingers 7.12502
rthumb 36.6941 -45.4924
lclavicle -3.75206e-015 8.44835e-015
lhumerus -41.1244 18.433 81.5984
lradius 33.7722
lwrist -13.2466
lhand -5.52803 11.2217
lfingers 7.12502
lthumb 20.286 40.1823
rfemur -2.19386 3.00732 28.0204
rtibia 18.7702
rfoot -17.2612 -3.03164
rtoes -12.2203
lfemur -29.349 5.08841 -15.2961
ltibia 49.6427
lfoot -19.6841 10.5368
ltoes -11.1544
267
root -1.87858 17.3176 11.4545 -123.606 84.808 -124.855
lowerback 0.812914 -1.47417 8.93438
upperback 0.34971 -1.87287 0.44726
thorax -0.366132 -0.929793 -4.51831
lowerneck -2.70359 2.32769 -3.36068
upperneck -7.01376 3.31758 1.07956
head -1.8084 1.76683 0.87375
rclavicle -1.52039e-014 1.39149e-015
rhumerus -20.9977 1.48965 -92.8898
rradius 31.0428
rwrist 25.2628
rhand 11.4616 -19.4671
rfingers 7.12502
rthumb 36.5113 -45.6564
lclavicle -1.52039e-014 1.39149e-015
lhumerus -41.2773 19.5824 80.5692
lradius 32.9383
lwrist -14.1954
lhand -5.41468 11.0912
lfingers 7.12502
lthumb 20.3949 40.0402
rfemur -0.953172 2.73079 27.8857
rtibia 17.2503
rfoot -17.0582 -2.50944
rtoes -12.4141
lfemur -29.7389 4.58423 -15.3744
ltibia 46.0632
lfoot -19.8763 11.6635
ltoes -11.102
268
root -1.67885 17.3292 11.4391 -121.717 84.8003 -123.029
lowerback 0.669993 -1.42236 9.09922
upperback 0.348328 -1.81675 0.48751
thorax -0.282824 -0.897718 -4.57355
lowerneck -2.75476 2.37924 -3.48026
upperneck -6.89302 3.38224 0.983664
head -1.76269 1.80199 0.864212
rclavicle -4.59379e-015 5.36719e-015
rhumerus -20.4542 2.00052 -93.0068
rradius 31.3353
rwrist 24.8668
rhand 11.2767 -19.7238
rfingers 7.12502
rthumb 36.3363 -45.9569
lclavicle -4.59379e-015 5.36719e-015
lhumerus -41.8629 19.9447 80.2522
lradius 32.9299
lwrist -14.2272
lhand -5.33456 11.6213
lfingers 7.12502
lthumb 20.4719 40.562
rfemur 0.711022 2.88855 28.0289
rtibia 15.26
rfoot -16.541 -2.52811
rtoes -12.6967
lfemur -29.8923 3.74183 -15.1385
ltibia 42.3096
lfoot -19.8035 12.7952
ltoes -11.5158
269
root -1.47705 17.3436 11.4215 -119.259 84.7786 -120.663
lowerback 0.408714 -1.33435 9.33091
upperback 0.386039 -1.72849 0.497438
thorax -0.0899799 -0.843409 -4.70168
lowerneck -2.76619 2.44255 -3.5045
upperneck -6.85288 3.46252 0.898204
head -1.74834 1.8435 0.840889
rclavicle 3.50669e-015 6.4605e-015
rhumerus -19.9562 2.61829 -93.0764
rradius 31.7907
rwrist 24.4198
rhand 11.081 -19.7279
rfingers 7.12502
rthumb 36.1509 -46.0072
lclavicle 3.50669e-015 6.4605e-015
lhumerus -42.2104 20.3849 79.8483
lradius 32.4782
lwrist -14.9599
lhand -5.72182 12.1584
lfingers 7.12502
lthumb 20.0998 41.1387
rfemur 2.53618 2.84407 28.1487
rtibia 12.8499
rfoot -15.8592 -2.26246
rtoes -12.7788
lfemur -29.9732 2.78509 -14.7759
ltibia 38.4165
lfoot -19.6583 13.4703
ltoes -9.73482
270
root -1.27554 17.354 11.4041 -114.419 84.7964 -116.027
lowerback 0.165425 -1.1473 9.68737
upperback 0.332849 -1.50331 0.452177
thorax 0.0154071 -0.727557 -4.95635
lowerneck -2.70426 2.45657 -3.44431
upperneck -6.82979 3.47317 0.826241
head -1.74881 1.84763 0.807257
rclavicle 2.49941e-014 -2.45499e-014
rhumerus -19.6076 2.65938 -93.2552
rradius 32.1272
rwrist 24.4448
rhand 10.7113 -19.5164
rfingers 7.12502
rthumb 35.8007 -45.8816
lclavicle 2.49941e-014 -2.45499e-014
lhumerus -42.6716 21.5083 78.7376
lradius 31.6703
lwrist -16.4142
lhand -5.45255 11.4994
lfingers 7.12502
lthumb 20.3586 40.4523
rfemur 4.52592 3.26053 28.3066
rtibia 9.80192
rfoot -14.7373 -2.25306
rtoes -12.994
lfemur -30.1051 1.59997 -14.1488
ltibia 34.5874
lfoot -19.626 14.0666
ltoes -9.57042
271
root -1.07242 17.3661 11.3902 -110.746 84.7684 -112.554
lowerback -0.10817 -1.00587 9.88417
upperback 0.264099 -1.34267 0.451755
thorax 0.11866 -0.6445 -5.07327
lowerneck -2.65454 2.48903 -3.42218
upperneck -6.7152 3.50765 0.761105
head -1.71932 1.86282 0.782634
rclavicle 4.29095e-015 2.08724e-015
rhumerus -19.338 3.23678 -93.3852
rradius 32.5605
rwrist 23.9324
rhand 11.0865 -19.7079
rfingers 7.12502
rthumb 36.1561 -45.9859
lclavicle 4.29095e-015 2.08724e-015
lhumerus -43.1651 22.1312 77.9955
lradius 31.1519
lwrist -17.238
lhand -5.27215 11.4412
lfingers 7.12502
lthumb 20.5319 40.3755
rfemur 7.23194 3.57146 28.4739
rtibia 5.32409
rfoot -12.9444 -1.97165
rtoes -12.3676
lfemur -30.2389 0.140633 -13.3594
ltibia 31.0362
lfoot -19.7162 14.7442
ltoes -9.519
